<svg xmlns="http://www.w3.org/2000/svg" width="37.881" height="37.881" viewBox="0 0 37.881 37.881">
  <defs>
    <style>
      .cls-1 {
        fill: #fff;
      }
    </style>
  </defs>
  <path id="iconmonstr-instagram-11_13_" data-name="iconmonstr-instagram-11 (13)" class="cls-1" d="M18.941,3.414c5.057,0,5.657.019,7.655.11,5.133.234,7.531,2.669,7.764,7.764.092,2,.109,2.6.109,7.654S34.45,24.6,34.36,26.6c-.235,5.09-2.626,7.531-7.764,7.764-2,.092-2.595.11-7.655.11s-5.657-.019-7.654-.11c-5.146-.235-7.531-2.682-7.764-7.766-.092-2-.11-2.595-.11-7.654s.021-5.655.11-7.654c.235-5.093,2.626-7.531,7.764-7.764,2-.09,2.6-.109,7.654-.109Zm0-3.414C13.8,0,13.153.022,11.132.114,4.254.429.431,4.246.115,11.131.022,13.153,0,13.8,0,18.941s.022,5.79.114,7.81c.316,6.879,4.132,10.7,11.017,11.017,2.022.092,2.666.114,7.81.114s5.79-.022,7.81-.114c6.872-.316,10.7-4.132,11.016-11.017.093-2.02.115-2.666.115-7.81s-.022-5.788-.114-7.808C37.458,4.26,33.637.431,26.752.115,24.73.022,24.085,0,18.941,0Zm0,9.215a9.727,9.727,0,1,0,9.726,9.726A9.726,9.726,0,0,0,18.941,9.215Zm0,16.04a6.314,6.314,0,1,1,6.314-6.314A6.313,6.313,0,0,1,18.941,25.254Zm10.111-18.7a2.273,2.273,0,1,0,2.271,2.273A2.274,2.274,0,0,0,29.052,6.558Z"/>
</svg>
