
<svg width="93" height="25" viewBox="0 0 93 25" fill="none" xmlns="http://www.w3.org/2000/svg">
<path d="M22.53 23.31L16.74 16.45C17.8029 16.005 18.7704 15.3599 19.59 14.55C23.33 10.85 23.11 4.55001 19.08 0.490005L10.71 8.79V0C4.81001 0 0 5.58 0 12.48C0 19.38 4.79001 24.96 10.71 24.96V22.54C14.79 25.37 19.53 25.83 22.53 23.31Z" fill="#F64968"/>
<path d="M36.9923 6.0464L36.4109 9.1472H32.845V11.7829H36.0621L35.4807 14.8837H32.845V20H29.0659V8.70146L28 6.0464H36.9923ZM37.5757 8.8565H41.0641V20H37.5757V8.8565ZM37.4788 5.3681H41.161V8.00378H37.4788V5.3681ZM46.9704 8.8565H49.0829V11.4728H46.9704V16.2984C46.9704 16.6602 47.0609 16.925 47.2418 17.093C47.4356 17.261 47.7392 17.3449 48.1526 17.3449C48.3593 17.3449 48.5402 17.3385 48.6953 17.3256C48.8503 17.2997 48.9795 17.2739 49.0829 17.248V19.8256C48.7728 19.9289 48.4433 20.0129 48.0945 20.0775C47.7586 20.155 47.4162 20.1938 47.0673 20.1938C45.8787 20.1938 44.9808 19.9419 44.3735 19.438C43.7792 18.9212 43.482 18.0039 43.482 16.686V11.4728H42.0285V8.8565H43.482V6.41462H46.9704V8.8565ZM54.4813 20.1938C53.6802 20.1938 52.905 20.1227 52.1557 19.9806C51.4192 19.8256 50.7797 19.6124 50.237 19.3411V5.87198L53.7254 5.3681V9.51542C54.0097 9.25702 54.3391 9.05676 54.7138 8.91464C55.1014 8.77252 55.5084 8.70146 55.9348 8.70146C56.6454 8.70146 57.2268 8.8565 57.679 9.16658C58.1441 9.46374 58.5058 9.87718 58.7642 10.4069C59.0356 10.9366 59.2229 11.5374 59.3263 12.2092C59.4425 12.8682 59.5007 13.5658 59.5007 14.3023C59.5007 16.4212 59.0743 17.9328 58.2216 18.8372C57.3689 19.7416 56.1221 20.1938 54.4813 20.1938ZM54.52 17.4806C55.1143 17.4806 55.489 17.2093 55.6441 16.6666C55.812 16.124 55.896 15.3036 55.896 14.2054C55.896 13.1847 55.8185 12.4676 55.6634 12.0542C55.5084 11.6278 55.2177 11.4147 54.7913 11.4147C54.6621 11.4147 54.5071 11.4405 54.3262 11.4922C54.1453 11.5439 53.9451 11.6278 53.7254 11.7441V17.3643C54.0226 17.4418 54.2875 17.4806 54.52 17.4806ZM65.0644 20.1938C63.9145 20.1938 62.9843 20 62.2737 19.6124C61.576 19.2248 61.0657 18.6111 60.7427 17.7713C60.4326 16.9186 60.2775 15.8075 60.2775 14.4379C60.2775 13.0684 60.4326 11.9638 60.7427 11.124C61.0657 10.2842 61.576 9.67046 62.2737 9.28286C62.9843 8.89526 63.9145 8.70146 65.0644 8.70146C66.2272 8.70146 67.1574 8.89526 67.8551 9.28286C68.5528 9.67046 69.0567 10.2842 69.3668 11.124C69.6898 11.9638 69.8513 13.0684 69.8513 14.4379C69.8513 15.8075 69.6898 16.9186 69.3668 17.7713C69.0567 18.6111 68.5528 19.2248 67.8551 19.6124C67.1574 20 66.2272 20.1938 65.0644 20.1938ZM65.045 17.4612C65.4843 17.4612 65.7944 17.2287 65.9753 16.7635C66.1561 16.2855 66.2466 15.5168 66.2466 14.4573C66.2466 13.385 66.1561 12.6162 65.9753 12.1511C65.7944 11.6731 65.4843 11.434 65.045 11.434C64.6187 11.434 64.315 11.6731 64.1342 12.1511C63.9662 12.6162 63.8822 13.385 63.8822 14.4573C63.8822 15.5168 63.9662 16.2855 64.1342 16.7635C64.315 17.2287 64.6187 17.4612 65.045 17.4612ZM74.1959 20.1938C73.4853 20.1938 72.8974 20.0452 72.4323 19.7481C71.9801 19.438 71.6183 19.0181 71.347 18.4884C71.0886 17.9586 70.9013 17.3643 70.785 16.7054C70.6816 16.0336 70.6299 15.3294 70.6299 14.593C70.6299 12.4741 70.9594 10.9625 71.6183 10.0581C72.2902 9.15366 73.2527 8.70146 74.5059 8.70146C75.0744 8.70146 75.7075 8.81774 76.4052 9.0503V5.89136L79.8936 5.3681V20H76.9284L76.6377 19.1473C76.3535 19.4703 75.9982 19.7287 75.5718 19.9225C75.1455 20.1034 74.6868 20.1938 74.1959 20.1938ZM75.3393 17.4806C75.4814 17.4806 75.6429 17.4548 75.8238 17.4031C76.0047 17.3514 76.1985 17.2674 76.4052 17.1511V11.5309C76.1209 11.4534 75.8561 11.4147 75.6106 11.4147C75.0163 11.4147 74.6351 11.686 74.4672 12.2286C74.3121 12.7713 74.2346 13.5917 74.2346 14.6899C74.2346 15.7106 74.3121 16.4341 74.4672 16.8604C74.6222 17.2739 74.9129 17.4806 75.3393 17.4806ZM87.2403 20L86.6976 22.4419L83.2867 22.907L83.8294 20H83.3643L80.7673 8.8565H84.3526L85.4767 16.2403H85.5154L86.6007 8.8565H90.0891L87.2403 20Z" fill="white"/>
</svg>
