<svg xmlns="http://www.w3.org/2000/svg" width="39.584" height="39.584" viewBox="0 0 39.584 39.584">
  <defs>
    <style>
      .cls-1 {
        fill: #fff;
        fill-rule: evenodd;
      }
    </style>
  </defs>
  <path id="iconmonstr-spotify-1" class="cls-1" d="M31.5,17.546c-6.38-3.789-16.9-4.137-22.993-2.288a1.851,1.851,0,0,1-1.074-3.543C14.423,9.593,26.045,10,33.389,14.362a1.851,1.851,0,0,1-1.89,3.183Zm-.208,5.613a1.545,1.545,0,0,1-2.123.508C23.849,20.4,15.74,19.449,9.446,21.359a1.543,1.543,0,1,1-.9-2.952c7.188-2.18,16.124-1.125,22.233,2.631A1.543,1.543,0,0,1,31.291,23.158Zm-2.423,5.388a1.231,1.231,0,0,1-1.7.411c-4.648-2.84-10.5-3.482-17.387-1.908a1.233,1.233,0,0,1-.549-2.4c7.539-1.724,14.006-.981,19.223,2.207A1.231,1.231,0,0,1,28.868,28.547ZM19.792,0A19.792,19.792,0,1,0,39.584,19.792,19.793,19.793,0,0,0,19.792,0Z"/>
</svg>
