<svg xmlns="http://www.w3.org/2000/svg" width="33.904" height="38.307" viewBox="0 0 33.904 38.307">
  <defs>
    <style>
      .cls-1 {
        fill: #fff;
      }
    </style>
  </defs>
  <path id="tiktok" class="cls-1" d="M43.5,24.152V17.466c-3.131,0-5.521-.836-7.063-2.46a10.477,10.477,0,0,1-2.507-6.64V7.883L27.612,7.73V34.889a5.886,5.886,0,1,1-3.814-6.6V21.81a12.525,12.525,0,0,0-2-.165,12.2,12.2,0,1,0,12.2,12.2,12.431,12.431,0,0,0-.094-1.5V21.574A17.046,17.046,0,0,0,43.5,24.152Z" transform="translate(-9.6 -7.73)"/>
</svg>
